# xmcd
#
# Track frame offsets:
#	150
#	17775
#	30997
#	45650
#	61860
#	75967
#	87747
#	103250
#	115342
#	130432
#	142547
#	156102
#	173310
#	189262
#	204572
#
# Disc length: 2986 seconds
#
# Revision: 1
# Processed by: cddbd v1.5.1PL2 Copyright (c) Steve Scherf et al.
# Submitted via: audiograbber 1.83.01
#
DISCID=b50ba80f
DTITLE=Music Maestro Country Line Dancers - Mm6174
DYEAR=1900
DGENRE=Karaoke
TTITLE0=Exile - Super Love
TTITLE1=Roger Brown - Swing City
TTITLE2=Tracy Byrd - Watermelon Crawl
TTITLE3=Tractors - Baby Likes To Rock It
TTITLE4=Alan Jackson - Tropical Depression
TTITLE5=Alan Jackson - Chattahoochee
TTITLE6=Brooks And Dunn - Boot Scootin' Boogie
TTITLE7=Br5 49 - Cherokee Boogie
TTITLE8=Confederate Railroad - Trashy Women
TTITLE9=Mark Chesnutt - Goin' Through The Big D
TTITLE10=Joe Diffie - Third Rock From The Sun
TTITLE11=Rodney Crowell - Let The Picture Paint Itself
TTITLE12=Joe Diffie - Honky Tonk Attitude
TTITLE13=Reba Mcentire - Why Haven't I Heard From You
TTITLE14=Steve Earle - Copperhead Road
EXTD=
EXTT0=
EXTT1=
EXTT2=
EXTT3=
EXTT4=
EXTT5=
EXTT6=
EXTT7=
EXTT8=
EXTT9=
EXTT10=
EXTT11=
EXTT12=
EXTT13=
EXTT14=
PLAYORDER=
